PathFileType	4	(X/Y/Z)	7_coords_data.trc
DataRate	CameraRate	NumFrames	NumMarkers	Units	OrigDataRate	OrigDataStartFrame	OrigNumFrames
30.0	30.0	6	21	m	30.0	1	73
Frame#	Time	THUMB_TIP	THUMB_IP	THUMB_MCP	THUMB_CMC	INDEX_TIP	INDEX_DIP	INDEX_PIP	INDEX_MCP	MIDDLE_TIP	MIDDLE_DIP	MIDDLE_PIP	MIDDLE_MCP	RING_TIP	RING_DIP	RING_PIP	RING_MCP	PINKY_TIP	PINKY_DIP	PINKY_PIP	PINKY_MCP	WRIST
X1	Y1	Z1	X2	Y2	Z2	X3	Y3	Z3	X4	Y4	Z4	X5	Y5	Z5	X6	Y6	Z6	X7	Y7	Z7	X8	Y8	Z8	X9	Y9	Z9	X10	Y10	Z10	X11	Y11	Z11	X12	Y12	Z12	X13	Y13	Z13	X14	Y14	Z14	X15	Y15	Z15	X16	Y16	Z16	X17	Y17	Z17	X18	Y18	Z18	X19	Y19	Z19	X20	Y20	Z20	X21	Y21	Z21
0	0.0	0.014595000267028809	-0.0312908992767334	0.9998060302734375	-0.002940599918365478	-0.025629499435424804	1.0183099975585939	-0.019908300399780275	-0.029531999588012694	1.040989990234375	-0.03526919937133789	-0.009651510238647461	1.055699951171875	0.01770789909362793	0.0018267099857330322	0.9550830078125	-0.0009309039711952211	-0.008061140060424805	0.96064599609375	-0.019811100006103515	-0.017820899963378906	0.9726519775390625	-0.04122019958496094	-0.02776840019226074	1.0015800170898437	0.018534299850463867	0.028714099884033204	0.9531220092773437	-0.0012624800205230712	0.020668100357055665	0.9581010131835938	-0.02272480010986328	0.0094512996673584	0.9700750122070313	-0.04941630172729492	-0.002341860055923462	0.99472998046875	0.012496899604797364	0.0446422004699707	0.968239013671875	-0.007570590019226074	0.03716809844970703	0.9737440185546875	-0.030720199584960937	0.030265800476074217	0.9806129760742187	-0.06018230056762695	0.015188799858093262	1.0057999877929686	-0.003497400045394897	0.06118489837646485	0.9935330200195313	-0.020869699478149414	0.053660198211669924	0.9979990234375	-0.037531200408935546	0.047291000366210936	1.0037999877929686	-0.05901940155029297	0.03178210067749023	1.0159600219726563	-0.07109690093994141	0.004211939811706543	1.0755
1	0.03333333333333333	0.014817500114440918	-0.03047100067138672	0.9987650146484375	-0.0022992799282073972	-0.02524930000305176	1.0188400268554687	-0.0201299991607666	-0.028019699096679687	1.043030029296875	-0.039422798156738284	-0.009209810256958008	1.059280029296875	0.017672399520874023	0.003329619884490967	0.9560040283203125	-0.000664497971534729	-0.006608550071716309	0.962427978515625	-0.019328100204467773	-0.015940600395202637	0.9735120239257813	-0.040748600006103516	-0.02549760055541992	1.003510009765625	0.01904669952392578	0.030546499252319337	0.9529550170898438	-0.0011786600351333608	0.021656200408935546	0.9600449829101563	-0.024464799880981446	0.010441200256347656	0.970885009765625	-0.051411800384521485	-0.003840409994125366	0.9976279907226563	0.012550700187683105	0.045349700927734375	0.96897802734375	-0.007823130130767823	0.03920909881591797	0.9742520141601563	-0.031335599899291994	0.030795000076293946	0.9824650268554688	-0.057743400573730466	0.016537799835205078	1.003489990234375	-0.005988150119781494	0.06194179916381836	0.9931729736328125	-0.022305099487304688	0.05504059982299805	0.9975419921875	-0.03776050186157227	0.0474390983581543	1.003	-0.05726940155029297	0.033717300415039064	1.0148699951171876	-0.0701449966430664	0.003851020097732544	1.0735699462890624
2	0.06666666666666667	0.015046600341796876	-0.029939899444580077	0.9990339965820313	-0.0022228000164031983	-0.02479599952697754	1.0189199829101563	-0.020072200775146484	-0.027638200759887696	1.04281005859375	-0.03964260101318359	-0.008884510040283204	1.059219970703125	0.018225799560546874	0.004577149868011474	0.9565260009765625	-0.00010137800127267801	-0.00544193983078003	0.962823974609375	-0.018878799438476562	-0.014946399688720703	0.9736370239257812	-0.0404818000793457	-0.02472010040283203	1.0032999877929687	0.019401300430297853	0.031831899642944333	0.9536740112304688	-0.000801298022270202	0.02280120086669922	0.9604760131835938	-0.024107200622558594	0.011429699897766113	0.97106201171875	-0.05127750015258789	-0.003088129997253418	0.9974420166015625	0.012635600090026856	0.04653559875488281	0.9695460205078125	-0.0077340898513793945	0.04019409942626953	0.9745469970703124	-0.03123390007019043	0.03168339920043945	0.9825599975585938	-0.05769620132446289	0.01715909957885742	1.0033699951171875	-0.006306789875030518	0.06292279815673828	0.9933880004882812	-0.022621200561523436	0.05591989898681641	0.9975770263671875	-0.03797439956665039	0.04820650100708008	1.002989990234375	-0.05756209945678711	0.034327301025390625	1.0147899780273437	-0.07057610321044921	0.004142240047454834	1.0732900390625
3	0.1	0.014978799819946289	-0.029744499206542967	0.9990139770507812	-0.002364069938659668	-0.024618400573730468	1.018780029296875	-0.020438100814819334	-0.027299699783325197	1.0428800048828124	-0.039851299285888674	-0.008522080421447755	1.05906005859375	0.018720300674438476	0.005655139923095703	0.9569760131835937	0.00030273500084877005	-0.004450940132141114	0.9630590209960938	-0.018496200561523436	-0.01397640037536621	0.9735289916992188	-0.040448501586914064	-0.023967199325561524	1.00302001953125	0.020079700469970704	0.032857498168945315	0.9543699951171875	-0.000239270001649856	0.02383489990234375	0.9609190063476563	-0.02365239906311035	0.012430700302124023	0.9712080078125	-0.05105039978027344	-0.0022408099174499514	0.997155029296875	0.01323550033569336	0.04777320098876953	0.9705809936523437	-0.00729636001586914	0.04129779815673828	0.9753670043945313	-0.030802400588989257	0.032712600708007813	0.9829929809570312	-0.0575364990234375	0.018024900436401366	1.0033499755859374	-0.005881669998168945	0.0637155990600586	0.9939929809570313	-0.022236499786376953	0.05673410034179688	0.9980430297851562	-0.037677600860595704	0.0489989013671875	1.0032899780273437	-0.05742819976806641	0.03509500122070312	1.0149199829101563	-0.07087239837646485	0.00441273021697998	1.0730899658203126
4	0.13333333333333333	0.014735099792480468	-0.029530899047851562	0.9989299926757812	-0.002549700021743774	-0.024387800216674804	1.018510009765625	-0.020790000915527344	-0.027093500137329102	1.0426300048828125	-0.04010509872436523	-0.00838031005859375	1.05881005859375	0.018813299179077148	0.006737810134887695	0.9570079956054688	0.00044823101162910404	-0.003387010097503662	0.9629730224609375	-0.018401300430297852	-0.012994899749755859	0.9733740234375	-0.040471401214599606	-0.0232106990814209	1.00272998046875	0.020327499389648437	0.034081600189208985	0.9547420043945313	3.7434399127960006e-05	0.02500869941711426	0.9611929931640625	-0.023412900924682616	0.013519399642944336	0.9712730102539062	-0.050979000091552734	-0.001400820016860962	0.9969910278320312	0.013809499740600585	0.04945330047607422	0.9720369873046875	-0.00666103982925415	0.0428135986328125	0.9765780029296875	-0.030176000595092775	0.03401699829101563	0.9838779907226562	-0.05744169998168945	0.01892959976196289	1.0031400146484375	-0.00550531005859375	0.064589599609375	0.9949990234375	-0.021908599853515624	0.05759989929199219	0.9988170166015625	-0.03738470077514648	0.04983660125732422	1.0039000244140626	-0.05735440063476562	0.03579970169067383	1.014989990234375	-0.07108910369873046	0.004700850009918213	1.072739990234375
5	0.16666666666666666	0.014675200462341309	-0.02932309913635254	0.9986129760742187	-0.002646650075912475	-0.024186700820922852	1.0182999877929688	-0.020922800064086915	-0.026927099227905274	1.0423399658203125	-0.03996590042114258	-0.008070229530334472	1.0583800048828125	0.018364500045776368	0.00691540002822876	0.9560170288085937	3.554800152778601e-05	-0.003107049942016601	0.962197021484375	-0.018710899353027343	-0.01257129955291748	0.9729019775390625	-0.04053369903564453	-0.02259860038757324	1.0021599731445312	0.020068399429321288	0.034747501373291016	0.9542780151367187	-0.00017971700429916302	0.025657699584960936	0.9608809814453125	-0.02359309959411621	0.014174699783325195	0.9710159912109375	-0.051024799346923826	-0.000775701999664306	0.9966270141601562	0.013857000350952149	0.05097600173950195	0.9720150146484375	-0.0064860801696777345	0.04395959854125977	0.976948974609375	-0.029807199478149415	0.034877601623535155	0.9844749755859376	-0.05735250091552734	0.01955769920349121	1.0031699829101564	-0.005178369998931885	0.06534919738769532	0.995458984375	-0.021539400100708008	0.05831829833984375	0.9992420043945313	-0.03701309967041016	0.050491798400878904	1.00427001953125	-0.05697420120239258	0.03641479873657227	1.0151199951171874	-0.07114199829101563	0.005182750225067138	1.0722900390625
